<svg xmlns="http://www.w3.org/2000/svg" viewBox="0 0 24 24" fill="#E60023">
  <path d="M12 0a12 12 0 0 0-4.37 23.17c-.06-.56-.12-1.43 0-2.05l.87-3.65s-.22-.44-.22-1.09c0-1 .6-1.78 1.34-1.78.63 0 .94.48.94 1.05 0 .64-.41 1.6-.62 2.49-.18.74.37 1.34 1.1 1.34 1.32 0 2.33-1.39 2.33-3.4 0-1.78-1.28-3.02-3.1-3.02-2.11 0-3.35 1.58-3.35 3.22 0 .64.24 1.32.55 1.69.06.07.07.14.05.21l-.2.84c-.03.13-.11.16-.25.1-1-.46-1.62-1.91-1.62-3.07 0-2.34 1.7-4.49 4.9-4.49 2.57 0 4.57 1.83 4.57 4.28 0 2.55-1.61 4.6-3.85 4.6-.75 0-1.46-.39-1.7-.85l-.46 1.76c-.17.64-.62 1.44-.92 1.93.69.21 1.42.33 2.17.33A12 12 0 1 0 12 0z"/>
</svg>
