<svg xmlns="http://www.w3.org/2000/svg" viewBox="0 0 24 24" fill="#FF4500">
  <path d="M24 11.5c0-1.65-1.35-3-3-3-.41 0-.8.08-1.15.22C18.21 7.27 15.71 6.5 13 6.5c-.01 0-.02 0-.03.01l1.32-4.19c.01-.03 0-.07-.02-.1-.02-.03-.05-.05-.08-.05l-4.44.93c-.15-.47-.59-.81-1.11-.81-.66 0-1.2.54-1.2 1.2s.54 1.2 1.2 1.2c.5 0 .93-.31 1.1-.74l3.87-.81-1.1 3.5c-2.73.04-5.24.81-6.85 2.23-.35-.14-.74-.22-1.15-.22-1.65 0-3 1.35-3 3 0 1.25.77 2.32 1.86 2.76-.04.24-.06.49-.06.74 0 3.31 4.03 6 9 6s9-2.69 9-6c0-.25-.02-.5-.06-.74 1.09-.44 1.86-1.51 1.86-2.76zM7.5 14c0-.83.67-1.5 1.5-1.5s1.5.67 1.5 1.5-.67 1.5-1.5 1.5-1.5-.67-1.5-1.5zm10.5 4.5c-1.84 0-3.48-.96-4.5-2.5-.1-.14-.07-.34.07-.44.15-.1.35-.07.45.07.9 1.37 2.37 2.22 3.98 2.22s3.08-.85 3.98-2.22c.1-.14.3-.17.44-.07.14.1.17.3.07.44-1.02 1.54-2.66 2.5-4.5 2.5zm1.5-3c-.83 0-1.5-.67-1.5-1.5s.67-1.5 1.5-1.5 1.5.67 1.5 1.5-.67 1.5-1.5 1.5z"/>
</svg>
