<svg xmlns="http://www.w3.org/2000/svg" viewBox="0 0 24 24" fill="black">
  <path d="M12.186 24h-.007c-3.581-.024-6.334-1.205-8.184-3.509C2.35 18.44 1.5 15.586 1.472 12.01v-.017c.03-3.579.879-6.43 2.525-8.482C5.845 1.205 8.6.024 12.18 0h.014c2.746.02 5.043.725 6.826 2.098 1.677 1.29 2.858 3.13 3.509 5.467l-2.04.569c-1.104-3.96-3.898-5.984-8.304-6.015-2.91.022-5.11.936-6.54 2.717C4.307 6.504 3.616 8.914 3.589 12c.027 3.086.718 5.496 2.057 7.164 1.43 1.781 3.631 2.695 6.54 2.717 2.623-.02 4.358-.631 5.8-2.045 1.647-1.613 1.618-3.593 1.09-4.798-.31-.71-.873-1.3-1.634-1.75-.192 1.352-.622 2.446-1.284 3.272-.886 1.102-2.14 1.704-3.73 1.79-1.202.065-2.361-.218-3.259-.801-1.063-.689-1.685-1.74-1.752-2.964-.065-1.19.408-2.285 1.33-3.082.88-.76 2.119-1.207 3.583-1.291a13.853 13.853 0 0 1 3.02.142c-.126-.742-.375-1.332-.74-1.763-.507-.598-1.256-.918-2.228-.952-1.281-.046-2.345.335-3.265 1.169l-1.207-1.555c1.319-1.025 2.971-1.531 4.915-1.504 1.5.054 2.682.567 3.513 1.525.799.921 1.276 2.13 1.427 3.598.433.086.838.186 1.212.298 1.438.433 2.455 1.098 3.026 1.977.638 1 .76 2.352.35 3.908-.54 2.055-1.906 3.753-3.838 4.781-1.558.828-3.394 1.256-5.462 1.277z"/>
</svg>
